<svg width="60" height="60" viewBox="0 0 60 60" fill="none" xmlns="http://www.w3.org/2000/svg">
<path d="M49.455 27.27L50.7915 27.9509L50.7915 27.9509L49.455 27.27ZM47.27 29.455L46.589 28.1185L46.589 28.1185L47.27 29.455ZM22.73 8.04497L22.0491 6.70846L22.0491 6.70846L22.73 8.04497ZM20.545 10.23L21.8815 10.911L21.8815 10.911L20.545 10.23ZM47.27 8.04497L47.9509 6.70846L47.9509 6.70846L47.27 8.04497ZM49.455 10.23L48.1185 10.911L48.1185 10.911L49.455 10.23ZM46.8487 29.6358L46.3454 28.2228L46.3454 28.2228L46.8487 29.6358ZM41.25 37.5L42.3107 36.4393L42.2699 36.3986L42.2262 36.3611L41.25 37.5ZM45.4345 30.2286L44.4559 29.0918L44.4559 29.0918L45.4345 30.2286ZM45.084 30.7256L46.4832 31.266L46.4832 31.266L45.084 30.7256ZM40 19C40.8284 19 41.5 18.3284 41.5 17.5C41.5 16.6716 40.8284 16 40 16V19ZM30 16C29.1716 16 28.5 16.6716 28.5 17.5C28.5 18.3284 29.1716 19 30 19V16ZM40 26.5C40.8284 26.5 41.5 25.8284 41.5 25C41.5 24.1716 40.8284 23.5 40 23.5V26.5ZM37.5 23.5C36.6716 23.5 36 24.1716 36 25C36 25.8284 36.6716 26.5 37.5 26.5V23.5ZM29.455 42.27L28.1185 41.589L28.1185 41.589L29.455 42.27ZM22 45L22 46.5H22V45ZM27.27 44.455L26.589 43.1185L26.589 43.1185L27.27 44.455ZM27.27 25.545L27.9509 24.2085L27.9509 24.2085L27.27 25.545ZM29.455 27.73L28.1185 28.411L28.1185 28.411L29.455 27.73ZM12.73 25.545L13.411 26.8815L13.411 26.8815L12.73 25.545ZM10.545 27.73L11.8815 28.411L11.8815 28.411L10.545 27.73ZM13.4142 49.0857L12.3536 48.0251L12.3536 48.0251L13.4142 49.0857ZM16.3284 46.1715L17.389 47.2322L17.389 47.2322L16.3284 46.1715ZM19.1569 44.9999L19.157 43.4999L19.157 43.4999L19.1569 44.9999ZM17.2293 45.3683L18.013 46.6473L18.013 46.6473L17.2293 45.3683ZM17.9519 45.069L18.3021 46.5275L18.3021 46.5275L17.9519 45.069ZM10.2995 50.294L11.4401 49.3198L11.4401 49.3198L10.2995 50.294ZM11.3481 50.7283L11.2304 49.233L11.2304 49.233L11.3481 50.7283ZM42 6H28V9H42V6ZM18.5 15.5V17.5H21.5V15.5H18.5ZM51.5 22V15.5H48.5V22H51.5ZM48.5 22C48.5 23.4249 48.4988 24.4033 48.4369 25.1618C48.3763 25.9028 48.2653 26.3009 48.1185 26.589L50.7915 27.9509C51.1897 27.1695 51.3512 26.3327 51.4269 25.4061C51.5012 24.4971 51.5 23.3754 51.5 22H48.5ZM47.9509 30.7915C49.174 30.1684 50.1684 29.174 50.7915 27.9509L48.1185 26.589C47.783 27.2475 47.2475 27.783 46.589 28.1185L47.9509 30.7915ZM28 6C26.6246 6 25.5029 5.99883 24.5939 6.0731C23.6673 6.1488 22.8305 6.31027 22.0491 6.70846L23.411 9.38148C23.6991 9.23469 24.0972 9.12368 24.8382 9.06314C25.5967 9.00117 26.5751 9 28 9V6ZM21.5 15.5C21.5 14.0751 21.5012 13.0967 21.5631 12.3382C21.6237 11.5972 21.7347 11.1991 21.8815 10.911L19.2085 9.54906C18.8103 10.3305 18.6488 11.1673 18.5731 12.0939C18.4988 13.0029 18.5 14.1246 18.5 15.5H21.5ZM22.0491 6.70846C20.826 7.33163 19.8316 8.32601 19.2085 9.54906L21.8815 10.911C22.217 10.2525 22.7525 9.71703 23.411 9.38148L22.0491 6.70846ZM42 9C43.4249 9 44.4033 9.00117 45.1618 9.06314C45.9028 9.12368 46.3009 9.23469 46.589 9.38148L47.9509 6.70846C47.1695 6.31027 46.3327 6.1488 45.4061 6.0731C44.4971 5.99883 43.3754 6 42 6V9ZM51.5 15.5C51.5 14.1246 51.5012 13.0029 51.4269 12.0939C51.3512 11.1673 51.1897 10.3305 50.7915 9.54906L48.1185 10.911C48.2653 11.1991 48.3763 11.5972 48.4369 12.3382C48.4988 13.0967 48.5 14.0751 48.5 15.5H51.5ZM46.589 9.38148C47.2475 9.71703 47.783 10.2525 48.1185 10.911L50.7915 9.54906C50.1684 8.32601 49.174 7.33163 47.9509 6.70846L46.589 9.38148ZM47.3519 31.0489C47.5572 30.9758 47.7565 30.8906 47.9509 30.7915L46.589 28.1185C46.5144 28.1565 46.4343 28.1911 46.3454 28.2228L47.3519 31.0489ZM43.5 31.8336V37.5H46.5V31.8336H43.5ZM43.5 37.5C43.5 37.5764 43.4786 37.6083 43.4881 37.5928C43.5086 37.5595 43.5808 37.4805 43.6987 37.451C43.8019 37.4252 43.7653 37.4813 43.5156 37.3669C43.26 37.2497 42.8566 36.9853 42.3107 36.4393L40.1893 38.5607C41.5173 39.8886 42.9859 40.7216 44.4263 40.3615C45.9729 39.9748 46.5 38.5115 46.5 37.5H43.5ZM42.2262 36.3611L38.4762 33.1468L36.5238 35.4246L40.2738 38.6389L42.2262 36.3611ZM46.3454 28.2228C45.9463 28.3649 45.6006 28.4877 45.3355 28.5951C45.11 28.6864 44.7509 28.8379 44.4559 29.0918L46.4131 31.3654C46.3366 31.4313 46.2847 31.455 46.3062 31.4439C46.3233 31.435 46.3687 31.4133 46.4614 31.3757C46.6529 31.2982 46.926 31.2006 47.3519 31.0489L46.3454 28.2228ZM46.5 31.8336C46.5 31.5184 46.5006 31.3483 46.5078 31.2279C46.5148 31.112 46.5232 31.1625 46.4832 31.266L43.6847 30.1851C43.5608 30.506 43.5272 30.8137 43.5132 31.049C43.4994 31.2798 43.5 31.5551 43.5 31.8336H46.5ZM44.4559 29.0918C44.3222 29.2069 44.1513 29.3652 43.9957 29.5858C43.8401 29.8064 43.7483 30.0204 43.6847 30.1851L46.4832 31.266C46.511 31.1941 46.4984 31.2424 46.4472 31.315C46.3959 31.3876 46.3547 31.4157 46.4131 31.3654L44.4559 29.0918ZM40 16H30V19H40V16ZM40 23.5H37.5V26.5H40V23.5ZM18 26.5H22V23.5H18V26.5ZM28.5 33V37H31.5V33H28.5ZM28.5 37C28.5 38.4249 28.4988 39.4033 28.4369 40.1618C28.3763 40.9028 28.2653 41.3009 28.1185 41.589L30.7915 42.9509C31.1897 42.1695 31.3512 41.3327 31.4269 40.4061C31.5012 39.4971 31.5 38.3754 31.5 37H28.5ZM22 46.5C23.3754 46.5 24.4971 46.5012 25.4061 46.4269C26.3327 46.3512 27.1695 46.1897 27.9509 45.7915L26.589 43.1185C26.3009 43.2653 25.9028 43.3763 25.1618 43.4369C24.4033 43.4988 23.4249 43.5 22 43.5V46.5ZM28.1185 41.589C27.783 42.2475 27.2475 42.783 26.589 43.1185L27.9509 45.7915C29.174 45.1684 30.1684 44.174 30.7915 42.9509L28.1185 41.589ZM22 26.5C23.4249 26.5 24.4033 26.5012 25.1618 26.5631C25.9028 26.6237 26.3009 26.7347 26.589 26.8815L27.9509 24.2085C27.1695 23.8103 26.3327 23.6488 25.4061 23.5731C24.4971 23.4988 23.3754 23.5 22 23.5V26.5ZM31.5 33C31.5 31.6246 31.5012 30.5029 31.4269 29.5939C31.3512 28.6673 31.1897 27.8305 30.7915 27.0491L28.1185 28.411C28.2653 28.6991 28.3763 29.0972 28.4369 29.8382C28.4988 30.5967 28.5 31.5751 28.5 33H31.5ZM26.589 26.8815C27.2475 27.217 27.783 27.7525 28.1185 28.411L30.7915 27.0491C30.1684 25.826 29.174 24.8316 27.9509 24.2085L26.589 26.8815ZM18 23.5C16.6246 23.5 15.5029 23.4988 14.5939 23.5731C13.6673 23.6488 12.8305 23.8103 12.0491 24.2085L13.411 26.8815C13.6991 26.7347 14.0972 26.6237 14.8382 26.5631C15.5967 26.5012 16.5751 26.5 18 26.5V23.5ZM11.5 33C11.5 31.5751 11.5012 30.5967 11.5631 29.8382C11.6237 29.0972 11.7347 28.6991 11.8815 28.411L9.20846 27.0491C8.81027 27.8305 8.6488 28.6673 8.5731 29.5939C8.49883 30.5029 8.5 31.6246 8.5 33H11.5ZM12.0491 24.2085C10.826 24.8316 9.83163 25.826 9.20846 27.0491L11.8815 28.411C12.217 27.7525 12.7525 27.217 13.411 26.8815L12.0491 24.2085ZM14.4749 50.1464L17.389 47.2322L15.2677 45.1109L12.3536 48.0251L14.4749 50.1464ZM22 43.5L19.157 43.4999L19.1569 46.4999L22 46.5L22 43.5ZM17.389 47.2322C17.8719 46.7493 17.9473 46.6875 18.013 46.6473L16.4455 44.0893C16.0066 44.3583 15.6496 44.729 15.2677 45.1109L17.389 47.2322ZM19.157 43.4999C18.6169 43.4999 18.1023 43.4903 17.6018 43.6104L18.3021 46.5275C18.377 46.5095 18.474 46.4999 19.1569 46.4999L19.157 43.4999ZM18.013 46.6473C18.1025 46.5924 18.2 46.552 18.3021 46.5275L17.6018 43.6104C17.1936 43.7084 16.8034 43.87 16.4455 44.0893L18.013 46.6473ZM8.5 47.6715C8.5 48.3991 8.49857 49.047 8.54329 49.5516C8.58364 50.0069 8.68013 50.7076 9.15889 51.2682L11.4401 49.3198C11.5415 49.4385 11.568 49.5348 11.566 49.5281C11.5625 49.5161 11.546 49.4493 11.5316 49.2868C11.5014 48.9465 11.5 48.4585 11.5 47.6715H8.5ZM12.3536 48.0251C11.7971 48.5815 11.451 48.9256 11.189 49.1449C11.064 49.2496 11.005 49.2852 10.9941 49.2912C10.988 49.2946 11.0748 49.2452 11.2304 49.233L11.4658 52.2237C12.2007 52.1659 12.7644 51.7386 13.1149 51.4452C13.5033 51.12 13.9604 50.6609 14.4749 50.1464L12.3536 48.0251ZM9.15889 51.2682C9.7306 51.9376 10.5882 52.2928 11.4658 52.2237L11.2304 49.233C11.3102 49.2267 11.3881 49.259 11.4401 49.3198L9.15889 51.2682ZM11.5 47.6715V33H8.5V47.6715H11.5Z" fill="#D60031"/>
</svg>
